Coordinates
version=1
nRows=12
nColumns=24
inDegrees=yes

Units are S.I. units (second, meters, Newtons, ...)
Angles are in degrees.

endheader
time	pelvis_tilt	pelvis_list	pelvis_rotation	pelvis_tx	pelvis_ty	pelvis_tz	hip_flexion_r	hip_adduction_r	hip_rotation_r	knee_angle_r	ankle_angle_r	subtalar_angle_r	mtp_angle_r	hip_flexion_l	hip_adduction_l	hip_rotation_l	knee_angle_l	ankle_angle_l	subtalar_angle_l	mtp_angle_l	lumbar_extension	lumbar_bending	lumbar_rotation
      0.92100000	     -2.37982187	     -2.65554656	     -3.79665908	     -0.20671918	      1.05318326	      0.32398487	     -3.89670703	      8.25805388	      3.41593878	    -13.45270156	     11.80139118	    -11.42740170	      1.25026616	     25.66538199	     -2.63223110	     -5.00186686	     -3.88601702	      5.99125164	      3.46485814	     -1.34513312	      6.61785683	      6.31558269	      2.47257980
      0.92516667	     -2.39385142	     -2.65473865	     -3.82720181	     -0.20086184	      1.05254882	      0.32388959	     -3.95349122	      8.23873330	      3.33694135	    -14.01774166	     11.84583653	    -11.42044954	      1.24863426	     25.56387445	     -2.58558374	     -4.96573577	     -3.76822838	      5.95614510	      3.60436514	     -1.35850337	      6.66013004	      6.31861471	      2.47606833
      0.92933333	     -2.41203869	     -2.59049310	     -3.80966354	     -0.19471645	      1.05195778	      0.32364353	     -4.00362689	      8.13549731	      3.08941579	    -14.61019569	     12.08284158	    -11.25932351	      1.24706183	     25.45623043	     -2.44116303	     -4.97910292	     -3.71718793	      5.84248786	      3.98388488	     -1.39930662	      6.67300110	      6.31561552	      2.50023364
      0.93350000	     -2.37810849	     -2.63443369	     -3.82340573	     -0.18896970	      1.05140395	      0.32362548	     -4.07486756	      8.16737199	      3.03972069	    -15.24259109	     12.08343858	    -11.20768828	      1.24738632	     25.33387091	     -2.44696844	     -4.93023054	     -3.80791326	      5.81830641	      4.09126711	     -1.40901287	      6.74527541	      6.27792341	      2.51213209
      0.93766667	     -2.33660413	     -2.62265707	     -3.73362471	     -0.18292460	      1.05090380	      0.32331547	     -4.14267737	      8.11768040	      2.65974302	    -15.91756409	     12.35723932	    -10.61685702	      1.25586675	     25.21350068	     -2.33112308	     -4.98457220	     -3.97842296	      5.73423750	      4.69143617	     -1.47525618	      6.71173459	      6.26129501	      2.55840367
      0.94183333	     -2.31518836	     -2.61622992	     -3.80394699	     -0.17699252	      1.05044761	      0.32331546	     -4.16691085	      8.07034829	      2.60471175	    -16.62907240	     12.31721542	    -10.59325910	      1.25691640	     25.05764016	     -2.30053841	     -4.91278077	     -4.13172545	      5.72150754	      4.76979922	     -1.48218990	      6.76579959	      6.24021071	      2.56066496
      0.94600000	     -2.31357695	     -2.56551229	     -3.83269109	     -0.17085511	      1.05000303	      0.32309377	     -4.14285306	      7.95092368	      2.30543543	    -17.39634181	     12.28408498	    -10.36695715	      1.26479088	     24.91846069	     -2.18664344	     -4.92010043	     -4.33046646	      5.66457960	      4.96401185	     -1.50190960	      6.72158583	      6.23807920	      2.56942278
      0.95016667	     -2.21193417	     -2.57292923	     -3.78895260	     -0.16485599	      1.04969015	      0.32285411	     -4.21282161	      7.89512631	      2.01328066	    -18.18057443	     12.34746057	     -9.65131760	      1.30201476	     24.69710253	     -2.11110683	     -4.84707455	     -4.59786281	      5.57187750	      5.32616358	     -1.55594363	      6.70698229	      6.22515728	      2.60695310
      0.95433333	     -2.16579226	     -2.57865207	     -3.83453356	     -0.15887606	      1.04934674	      0.32284088	     -4.19399683	      7.84375502	      1.86171248	    -19.02465528	     12.26709705	     -9.62407137	      1.30631880	     24.50871948	     -2.08488321	     -4.81213912	     -4.86950761	      5.52620175	      5.37085043	     -1.56005264	      6.76717032	      6.18005457	      2.61517244
      0.95850000	     -2.12790681	     -2.56208473	     -3.76068186	     -0.15273435	      1.04899830	      0.32245488	     -4.13679681	      7.73981923	      1.38946455	    -19.90539362	     12.04482084	     -9.07208065	      1.34517073	     24.34904343	     -1.96103385	     -4.81548300	     -5.18612202	      5.30481893	      5.49945541	     -1.58225074	      6.70906978	      6.16955051	      2.63868034
      0.96266667	     -2.06778232	     -2.55195927	     -3.82946614	     -0.14670657	      1.04876468	      0.32244694	     -4.07273046	      7.64898956	      1.20062568	    -20.86352381	     11.93599804	     -9.00385198	      1.35360532	     24.10897471	     -1.92371196	     -4.75535063	     -5.44375223	      5.23960822	      5.55126344	     -1.58426595	      6.77205373	      6.13097950	      2.64417142
      0.96683333	     -2.00813521	     -2.49630881	     -3.78739989	     -0.14045829	      1.04856282	      0.32195142	     -3.97956756	      7.46022309	      0.70779600	    -21.85093049	     11.61463785	     -8.08891044	      1.44478542	     23.86107064	     -1.75214858	     -4.62455406	     -5.67876551	      4.87567816	      5.51675146	     -1.59873324	      6.70993697	      6.13101425	      2.66502835
